<mxfile host="app.diagrams.net" modified="2023-09-14T11:49:19.638Z" agent="Mozilla/5.0 (Windows NT 10.0; Win64; x64) AppleWebKit/537.36 (KHTML, like Gecko) Chrome/116.0.0.0 Safari/537.36" etag="-Kph0Ya_9agLVmI50ONE" version="21.7.5" type="device">
  <diagram name="Page-1" id="2YBvvXClWsGukQMizWep">
    <mxGraphModel dx="1050" dy="542" grid="1" gridSize="10" guides="1" tooltips="1" connect="1" arrows="1" fold="1" page="1" pageScale="1" pageWidth="850" pageHeight="1100" math="0" shadow="0">
      <root>
        <mxCell id="0" />
        <mxCell id="1" parent="0" />
        <mxCell id="pPaHzkRW0WduUCZ9Fjcq-30" value="" style="endArrow=none;dashed=1;html=1;rounded=0;" parent="1" edge="1">
          <mxGeometry width="50" height="50" relative="1" as="geometry">
            <mxPoint x="80" y="380" as="sourcePoint" />
            <mxPoint x="80" y="100" as="targetPoint" />
          </mxGeometry>
        </mxCell>
        <mxCell id="aM9ryv3xv72pqoxQDRHE-5" value="UI" style="shape=umlLifeline;perimeter=lifelinePerimeter;whiteSpace=wrap;html=1;container=0;dropTarget=0;collapsible=0;recursiveResize=0;outlineConnect=0;portConstraint=eastwest;newEdgeStyle={&quot;edgeStyle&quot;:&quot;elbowEdgeStyle&quot;,&quot;elbow&quot;:&quot;vertical&quot;,&quot;curved&quot;:0,&quot;rounded&quot;:0};" parent="1" vertex="1">
          <mxGeometry x="220" y="40" width="100" height="420" as="geometry" />
        </mxCell>
        <mxCell id="aM9ryv3xv72pqoxQDRHE-6" value="" style="html=1;points=[];perimeter=orthogonalPerimeter;outlineConnect=0;targetShapes=umlLifeline;portConstraint=eastwest;newEdgeStyle={&quot;edgeStyle&quot;:&quot;elbowEdgeStyle&quot;,&quot;elbow&quot;:&quot;vertical&quot;,&quot;curved&quot;:0,&quot;rounded&quot;:0};" parent="aM9ryv3xv72pqoxQDRHE-5" vertex="1">
          <mxGeometry x="45" y="90" width="10" height="330" as="geometry" />
        </mxCell>
        <mxCell id="pPaHzkRW0WduUCZ9Fjcq-1" value="API" style="shape=umlLifeline;perimeter=lifelinePerimeter;whiteSpace=wrap;html=1;container=0;dropTarget=0;collapsible=0;recursiveResize=0;outlineConnect=0;portConstraint=eastwest;newEdgeStyle={&quot;edgeStyle&quot;:&quot;elbowEdgeStyle&quot;,&quot;elbow&quot;:&quot;vertical&quot;,&quot;curved&quot;:0,&quot;rounded&quot;:0};" parent="1" vertex="1">
          <mxGeometry x="520" y="40" width="100" height="250" as="geometry" />
        </mxCell>
        <mxCell id="pPaHzkRW0WduUCZ9Fjcq-11" value="Database" style="shape=umlLifeline;perimeter=lifelinePerimeter;whiteSpace=wrap;html=1;container=0;dropTarget=0;collapsible=0;recursiveResize=0;outlineConnect=0;portConstraint=eastwest;newEdgeStyle={&quot;edgeStyle&quot;:&quot;elbowEdgeStyle&quot;,&quot;elbow&quot;:&quot;vertical&quot;,&quot;curved&quot;:0,&quot;rounded&quot;:0};" parent="1" vertex="1">
          <mxGeometry x="710" y="40" width="100" height="210" as="geometry" />
        </mxCell>
        <mxCell id="pPaHzkRW0WduUCZ9Fjcq-19" value="User_1" style="shape=umlActor;verticalLabelPosition=bottom;verticalAlign=top;html=1;" parent="1" vertex="1">
          <mxGeometry x="65" y="20" width="30" height="60" as="geometry" />
        </mxCell>
        <mxCell id="pPaHzkRW0WduUCZ9Fjcq-28" value="Select User_2 / &lt;br&gt;Remove Friend" style="html=1;verticalAlign=bottom;endArrow=block;edgeStyle=elbowEdgeStyle;elbow=vertical;curved=0;rounded=0;" parent="1" edge="1">
          <mxGeometry x="0.0055" relative="1" as="geometry">
            <mxPoint x="81" y="131" as="sourcePoint" />
            <Array as="points">
              <mxPoint x="186" y="130.5" />
            </Array>
            <mxPoint x="261" y="131" as="targetPoint" />
            <mxPoint as="offset" />
          </mxGeometry>
        </mxCell>
        <mxCell id="9hIXvd_vDNnnHWC71N-C-22" value="Remove User_2 from Friends" style="html=1;verticalAlign=bottom;endArrow=open;dashed=1;endSize=8;edgeStyle=elbowEdgeStyle;elbow=vertical;curved=0;rounded=0;" parent="1" edge="1">
          <mxGeometry relative="1" as="geometry">
            <mxPoint x="85" y="380" as="targetPoint" />
            <Array as="points">
              <mxPoint x="180" y="380" />
            </Array>
            <mxPoint x="255" y="380" as="sourcePoint" />
          </mxGeometry>
        </mxCell>
        <mxCell id="mBVcZ1laDggtYvrbGUA1-8" value="Return Object Deleted" style="html=1;verticalAlign=bottom;endArrow=open;dashed=1;endSize=8;edgeStyle=elbowEdgeStyle;elbow=horizontal;curved=0;rounded=0;" parent="1" edge="1">
          <mxGeometry x="-0.0035" relative="1" as="geometry">
            <mxPoint x="575" y="238.82" as="targetPoint" />
            <Array as="points">
              <mxPoint x="670" y="238.82" />
            </Array>
            <mxPoint x="745" y="238.82" as="sourcePoint" />
            <mxPoint as="offset" />
          </mxGeometry>
        </mxCell>
        <mxCell id="mBVcZ1laDggtYvrbGUA1-14" value="User_2" style="shape=umlActor;verticalLabelPosition=bottom;verticalAlign=top;html=1;" parent="1" vertex="1">
          <mxGeometry x="450" y="430" width="30" height="60" as="geometry" />
        </mxCell>
        <mxCell id="pPaHzkRW0WduUCZ9Fjcq-12" value="" style="html=1;points=[];perimeter=orthogonalPerimeter;outlineConnect=0;targetShapes=umlLifeline;portConstraint=eastwest;newEdgeStyle={&quot;edgeStyle&quot;:&quot;elbowEdgeStyle&quot;,&quot;elbow&quot;:&quot;vertical&quot;,&quot;curved&quot;:0,&quot;rounded&quot;:0};" parent="1" vertex="1">
          <mxGeometry x="755" y="180" width="10" height="60" as="geometry" />
        </mxCell>
        <mxCell id="mBVcZ1laDggtYvrbGUA1-20" value="Return Deleted Friend" style="html=1;verticalAlign=bottom;endArrow=open;dashed=1;endSize=8;edgeStyle=elbowEdgeStyle;elbow=horizontal;curved=0;rounded=0;" parent="1" edge="1">
          <mxGeometry relative="1" as="geometry">
            <mxPoint x="280" y="280" as="targetPoint" />
            <Array as="points">
              <mxPoint x="505" y="280" />
            </Array>
            <mxPoint x="550" y="280" as="sourcePoint" />
            <mxPoint as="offset" />
          </mxGeometry>
        </mxCell>
        <mxCell id="mBVcZ1laDggtYvrbGUA1-26" value="Remove User_1 from Friends" style="html=1;verticalAlign=bottom;endArrow=open;dashed=1;endSize=8;edgeStyle=elbowEdgeStyle;elbow=vertical;curved=0;rounded=0;" parent="1" edge="1">
          <mxGeometry relative="1" as="geometry">
            <mxPoint x="425" y="460" as="targetPoint" />
            <Array as="points">
              <mxPoint x="315" y="460" />
            </Array>
            <mxPoint x="280" y="460" as="sourcePoint" />
          </mxGeometry>
        </mxCell>
        <mxCell id="pPaHzkRW0WduUCZ9Fjcq-2" value="" style="html=1;points=[];perimeter=orthogonalPerimeter;outlineConnect=0;targetShapes=umlLifeline;portConstraint=eastwest;newEdgeStyle={&quot;edgeStyle&quot;:&quot;elbowEdgeStyle&quot;,&quot;elbow&quot;:&quot;vertical&quot;,&quot;curved&quot;:0,&quot;rounded&quot;:0};" parent="1" vertex="1">
          <mxGeometry x="565" y="150" width="10" height="130" as="geometry" />
        </mxCell>
        <mxCell id="mBVcZ1laDggtYvrbGUA1-30" value="Delete Friend" style="html=1;verticalAlign=bottom;endArrow=block;edgeStyle=elbowEdgeStyle;elbow=vertical;curved=0;rounded=0;" parent="1" edge="1">
          <mxGeometry x="0.0055" relative="1" as="geometry">
            <mxPoint x="290" y="160.5" as="sourcePoint" />
            <Array as="points">
              <mxPoint x="395" y="160" />
            </Array>
            <mxPoint x="560" y="160" as="targetPoint" />
            <mxPoint as="offset" />
          </mxGeometry>
        </mxCell>
        <mxCell id="mBVcZ1laDggtYvrbGUA1-32" value="Delete Friend Object" style="html=1;verticalAlign=bottom;endArrow=block;edgeStyle=elbowEdgeStyle;elbow=vertical;curved=0;rounded=0;" parent="1" edge="1">
          <mxGeometry x="0.0055" relative="1" as="geometry">
            <mxPoint x="580" y="179.91" as="sourcePoint" />
            <Array as="points">
              <mxPoint x="685" y="179.41" />
            </Array>
            <mxPoint x="750" y="180" as="targetPoint" />
            <mxPoint as="offset" />
          </mxGeometry>
        </mxCell>
      </root>
    </mxGraphModel>
  </diagram>
</mxfile>
